<svg xmlns="http://www.w3.org/2000/svg" width="157.46" height="35" viewBox="0 0 157.46 35"><rect class="svg__rect" x="0" y="0" width="64.89" height="35" fill="#2246D3"/><rect class="svg__rect" x="62.89" y="0" width="94.57000000000001" height="35" fill="#8FC965"/><path class="svg__text" d="M14.08 19.16L14.08 19.16L14.08 13.47L15.56 13.47L15.56 19.18Q15.56 20.03 15.99 20.48Q16.43 20.93 17.27 20.93L17.27 20.93Q18.98 20.93 18.98 19.13L18.98 19.13L18.98 13.47L20.46 13.47L20.46 19.17Q20.46 20.53 19.59 21.32Q18.72 22.12 17.27 22.12L17.27 22.12Q15.81 22.12 14.94 21.33Q14.08 20.55 14.08 19.16ZM24.59 19.42L24.59 19.42L26.08 19.42Q26.08 20.15 26.56 20.55Q27.04 20.95 27.93 20.95L27.93 20.95Q28.71 20.95 29.10 20.63Q29.49 20.32 29.49 19.80L29.49 19.80Q29.49 19.24 29.09 18.94Q28.70 18.63 27.66 18.32Q26.63 18.01 26.02 17.63L26.02 17.63Q24.86 16.90 24.86 15.72L24.86 15.72Q24.86 14.69 25.70 14.02Q26.54 13.35 27.88 13.35L27.88 13.35Q28.77 13.35 29.47 13.68Q30.17 14.01 30.56 14.61Q30.96 15.22 30.96 15.96L30.96 15.96L29.49 15.96Q29.49 15.29 29.07 14.91Q28.65 14.54 27.87 14.54L27.87 14.54Q27.14 14.54 26.74 14.85Q26.34 15.16 26.34 15.71L26.34 15.71Q26.34 16.18 26.77 16.50Q27.21 16.81 28.20 17.10Q29.20 17.40 29.80 17.78Q30.41 18.16 30.69 18.65Q30.97 19.13 30.97 19.79L30.97 19.79Q30.97 20.86 30.15 21.49Q29.33 22.12 27.93 22.12L27.93 22.12Q27.01 22.12 26.23 21.77Q25.46 21.43 25.02 20.83Q24.59 20.22 24.59 19.42ZM40.84 22L35.26 22L35.26 13.47L40.80 13.47L40.80 14.66L36.74 14.66L36.74 17.02L40.24 17.02L40.24 18.19L36.74 18.19L36.74 20.82L40.84 20.82L40.84 22ZM44.60 19.42L44.60 19.42L46.08 19.42Q46.08 20.15 46.56 20.55Q47.04 20.95 47.94 20.95L47.94 20.95Q48.71 20.95 49.10 20.63Q49.49 20.32 49.49 19.80L49.49 19.80Q49.49 19.24 49.10 18.94Q48.70 18.63 47.67 18.32Q46.64 18.01 46.03 17.63L46.03 17.63Q44.86 16.90 44.86 15.72L44.86 15.72Q44.86 14.69 45.70 14.02Q46.54 13.35 47.89 13.35L47.89 13.35Q48.78 13.35 49.47 13.68Q50.17 14.01 50.57 14.61Q50.97 15.22 50.97 15.96L50.97 15.96L49.49 15.96Q49.49 15.29 49.07 14.91Q48.65 14.54 47.87 14.54L47.87 14.54Q47.15 14.54 46.75 14.85Q46.34 15.16 46.34 15.71L46.34 15.71Q46.34 16.18 46.78 16.50Q47.21 16.81 48.21 17.10Q49.20 17.40 49.81 17.78Q50.41 18.16 50.69 18.65Q50.97 19.13 50.97 19.79L50.97 19.79Q50.97 20.86 50.16 21.49Q49.34 22.12 47.94 22.12L47.94 22.12Q47.01 22.12 46.24 21.77Q45.46 21.43 45.03 20.83Q44.60 20.22 44.60 19.42Z" fill="#FFFFFF"/><path class="svg__text" d="M79.41 22L77.08 22L77.08 13.60L79.03 13.60L82.74 18.07L82.74 13.60L85.07 13.60L85.07 22L83.12 22L79.41 17.52L79.41 22ZM89.80 17.80L89.80 17.80Q89.80 16.55 90.41 15.55Q91.01 14.56 92.07 14.00Q93.14 13.43 94.47 13.43L94.47 13.43Q95.80 13.43 96.86 14.00Q97.93 14.56 98.53 15.55Q99.14 16.55 99.14 17.80L99.14 17.80Q99.14 19.05 98.53 20.04Q97.93 21.04 96.86 21.60Q95.80 22.17 94.47 22.17L94.47 22.17Q93.14 22.17 92.07 21.60Q91.01 21.04 90.41 20.04Q89.80 19.05 89.80 17.80ZM92.20 17.80L92.20 17.80Q92.20 18.51 92.50 19.05Q92.80 19.60 93.32 19.90Q93.84 20.20 94.47 20.20L94.47 20.20Q95.11 20.20 95.62 19.90Q96.14 19.60 96.44 19.05Q96.74 18.51 96.74 17.80L96.74 17.80Q96.74 17.09 96.44 16.54Q96.14 16 95.62 15.70Q95.11 15.40 94.47 15.40L94.47 15.40Q93.83 15.40 93.32 15.70Q92.80 16 92.50 16.54Q92.20 17.09 92.20 17.80ZM107.84 22L103.87 22L103.87 13.60L107.84 13.60Q109.22 13.60 110.29 14.12Q111.36 14.63 111.94 15.58Q112.53 16.53 112.53 17.80L112.53 17.80Q112.53 19.07 111.94 20.02Q111.36 20.97 110.29 21.48Q109.22 22 107.84 22L107.84 22ZM106.25 15.50L106.25 20.10L107.75 20.10Q108.82 20.10 109.48 19.49Q110.13 18.88 110.13 17.80L110.13 17.80Q110.13 16.72 109.48 16.11Q108.82 15.50 107.75 15.50L107.75 15.50L106.25 15.50ZM124.01 22L117.26 22L117.26 13.60L123.85 13.60L123.85 15.44L119.62 15.44L119.62 16.85L123.35 16.85L123.35 18.63L119.62 18.63L119.62 20.17L124.01 20.17L124.01 22ZM127.73 20.93L127.73 20.93L129.03 19.40Q129.70 20.27 130.47 20.27L130.47 20.27Q130.47 20.27 130.48 20.27L130.48 20.27Q131.00 20.27 131.27 19.96Q131.53 19.65 131.53 19.05L131.53 19.05L131.53 15.44L128.63 15.44L128.63 13.60L133.89 13.60L133.89 18.91Q133.89 20.54 133.07 21.36Q132.24 22.17 130.65 22.17L130.65 22.17Q129.72 22.17 128.97 21.85Q128.21 21.53 127.73 20.93ZM138.39 21.24L138.39 21.24L139.17 19.49Q139.73 19.86 140.48 20.09Q141.22 20.32 141.94 20.32L141.94 20.32Q143.31 20.32 143.31 19.64L143.31 19.64Q143.31 19.28 142.92 19.11Q142.53 18.93 141.67 18.74L141.67 18.74Q140.72 18.53 140.08 18.30Q139.45 18.06 138.99 17.55Q138.54 17.03 138.54 16.16L138.54 16.16Q138.54 15.39 138.96 14.77Q139.37 14.15 140.21 13.79Q141.04 13.43 142.25 13.43L142.25 13.43Q143.08 13.43 143.88 13.62Q144.69 13.80 145.30 14.17L145.30 14.17L144.57 15.93Q143.37 15.28 142.24 15.28L142.24 15.28Q141.53 15.28 141.21 15.49Q140.89 15.70 140.89 16.04L140.89 16.04Q140.89 16.37 141.27 16.54Q141.65 16.71 142.50 16.89L142.50 16.89Q143.46 17.10 144.09 17.33Q144.72 17.56 145.19 18.07Q145.65 18.58 145.65 19.46L145.65 19.46Q145.65 20.21 145.23 20.83Q144.81 21.44 143.97 21.80Q143.13 22.17 141.93 22.17L141.93 22.17Q140.91 22.17 139.95 21.92Q138.99 21.67 138.39 21.24Z" fill="#FFFFFF" x="75.89"/></svg>